<svg width="40" height="40" viewBox="0 0 40 40" fill="none" xmlns="http://www.w3.org/2000/svg">
<path d="M1.1547 22C0.440169 20.7624 0.440169 19.2376 1.1547 18L8.8453 4.67949C9.55983 3.44188 10.8803 2.67949 12.3094 2.67949H27.6906C29.1197 2.67949 30.4402 3.44188 31.1547 4.67949L38.8453 18C39.5598 19.2376 39.5598 20.7624 38.8453 22L31.1547 35.3205C30.4402 36.5581 29.1197 37.3205 27.6906 37.3205H12.3094C10.8803 37.3205 9.55983 36.5581 8.8453 35.3205L1.1547 22Z" fill="#F5726E"/>
<path d="M26.1519 13.2009C26.1519 12.4436 25.5267 11.8125 24.7765 11.8125H19.3002C19.3252 12.0397 19.3502 12.2669 19.3502 12.4941C19.3502 13.7058 18.9751 14.8418 18.325 15.7758H22.8511C23.0011 15.7758 23.1011 15.902 23.1011 16.0282V16.7855C23.1011 16.937 22.9761 17.038 22.8511 17.038H17.0997C16.1494 17.77 14.9742 18.1992 13.6989 18.1992C13.2487 18.1992 12.7986 18.1487 12.3735 18.0477V26.7064C12.3735 27.4637 12.9987 28.0948 13.7489 28.0948H20.4505L26.1519 19.9158V13.2009ZM20.6755 24.3839C20.6755 24.5354 20.5505 24.6364 20.4255 24.6364H15.4493C15.2992 24.6364 15.1992 24.5101 15.1992 24.3839V23.6266C15.1992 23.4751 15.3242 23.3742 15.4493 23.3742H20.4005C20.5505 23.3742 20.6505 23.5004 20.6505 23.6266V24.3839H20.6755ZM23.1011 20.5721C23.1011 20.7236 22.9761 20.8245 22.8511 20.8245H15.4493C15.2992 20.8245 15.1992 20.6983 15.1992 20.5721V19.8148C15.1992 19.6633 15.3242 19.5624 15.4493 19.5624H22.8511C23.0011 19.5624 23.1011 19.6886 23.1011 19.8148V20.5721Z" fill="white"/>
<path d="M21.8774 27.8969L24.353 29.6639L28.529 23.6811L26.0534 21.9141L21.8774 27.8969Z" fill="white"/>
<path d="M29.8302 21.1522L27.9547 19.8143C27.7797 19.688 27.5546 19.7385 27.4296 19.9152L26.6294 21.0512L29.13 22.8183L29.9302 21.6823C30.0552 21.5056 30.0052 21.2532 29.8302 21.1522Z" fill="white"/>
<path d="M20.7511 29.5114C20.7011 29.5871 20.6511 29.7133 20.6761 29.8143L20.7511 31.5561C20.7761 31.859 21.0512 32.061 21.3512 31.9853L23.0016 31.4804C23.1017 31.4551 23.1767 31.3794 23.2517 31.3037L23.7768 30.5464L21.2762 28.7793L20.7511 29.5114Z" fill="white"/>
<path d="M18.1261 12.4701C18.1261 9.99622 16.1506 8.00195 13.7 8.00195C11.2494 8.00195 9.27393 9.99622 9.27393 12.4701C9.27393 14.944 11.2494 16.9635 13.7 16.9635C16.1506 16.9635 18.1261 14.944 18.1261 12.4701ZM13.1999 14.3886C13.0248 14.3886 12.8748 14.3129 12.7498 14.1867L11.4745 12.8235C11.2494 12.5711 11.2494 12.1924 11.4995 11.9652C11.7495 11.738 12.1246 11.738 12.3497 11.9905L13.1749 12.874L14.9753 10.9302C15.2004 10.6778 15.6005 10.6778 15.8255 10.905C16.0756 11.1322 16.0756 11.5361 15.8505 11.7633L13.65 14.1867C13.525 14.3129 13.3749 14.3886 13.1999 14.3886Z" fill="white"/>
</svg>
